<svg width="52" height="50" viewBox="0 0 52 50" fill="none" xmlns="http://www.w3.org/2000/svg">
<path d="M27.9065 13.375V23.3289L36.5284 28.2938C37.1919 28.6834 37.6755 29.3183 37.8749 30.0614C38.0743 30.8045 37.9734 31.5962 37.594 32.2656C37.3351 32.7045 36.9671 33.0689 36.5258 33.3235C36.0845 33.5781 35.5848 33.7143 35.0753 33.7188C34.5649 33.7228 34.0628 33.589 33.6222 33.3313L23.5472 27.5188L23.4745 27.4703L23.3292 27.3734L23.2323 27.3008L23.1112 27.2039L22.9901 27.107L22.9175 27.0102L22.7964 26.8891L22.7237 26.8164L22.6269 26.6711L22.5542 26.5742L22.4815 26.4531L22.4089 26.332L22.3604 26.2109L22.2878 26.0656C22.2878 26.0172 22.2636 25.993 22.2636 25.9445C22.2366 25.9004 22.22 25.8507 22.2151 25.7992L22.1667 25.6781C22.1667 25.6297 22.1425 25.5813 22.1425 25.5328C22.1425 25.4844 22.1183 25.4359 22.1183 25.3875V25.2422C22.0968 25.1884 22.0885 25.1303 22.094 25.0727V13.375C22.094 12.6042 22.4002 11.865 22.9453 11.32C23.4903 10.775 24.2295 10.4688 25.0003 10.4688C25.7711 10.4688 26.5103 10.775 27.0553 11.32C27.6003 11.865 27.9065 12.6042 27.9065 13.375ZM48.8558 21.0039L49.0011 20.9555H49.1464L49.2675 20.907L49.4128 20.8586L49.5339 20.8102L49.655 20.7375L49.7761 20.6649L49.8972 20.5922L50.0183 20.4953L50.1394 20.4227C50.2156 20.371 50.2814 20.3052 50.3331 20.2289H50.3573L50.5269 20.0109L50.6237 19.9141L50.6964 19.793L50.7933 19.6719L50.8417 19.5508L50.9144 19.4055L50.987 19.2844C50.9887 19.2396 51.0058 19.1968 51.0355 19.1633C51.0355 19.1149 51.0597 19.0664 51.0597 19.018C51.0597 18.9695 51.0839 18.9211 51.1081 18.8969C51.1323 18.8727 51.1323 18.8 51.1323 18.7516C51.1504 18.6969 51.1586 18.6395 51.1565 18.582C51.1761 18.5449 51.1845 18.5028 51.1808 18.4609C51.1808 18.3641 51.205 18.2672 51.205 18.1703V8.48282C51.205 7.71204 50.8988 6.97282 50.3538 6.42779C49.8087 5.88277 49.0695 5.57657 48.2987 5.57657C47.5279 5.57657 46.7887 5.88277 46.2437 6.42779C45.6987 6.97282 45.3925 7.71204 45.3925 8.48282V11.1469L42.1229 7.87735C38.7362 4.48957 34.4208 2.18223 29.7227 1.24715C25.0245 0.312074 20.1545 0.791259 15.7287 2.6241C11.3029 4.45695 7.51999 7.56112 4.85847 11.544C2.19696 15.5269 0.776367 20.2097 0.776367 25C0.776367 29.7903 2.19696 34.4731 4.85847 38.456C7.51999 42.4389 11.3029 45.5431 15.7287 47.3759C20.1545 49.2088 25.0245 49.6879 29.7227 48.7529C34.4208 47.8178 38.7362 45.5104 42.1229 42.1227C42.3939 41.8527 42.6089 41.5318 42.7556 41.1786C42.9022 40.8253 42.9777 40.4466 42.9777 40.0641C42.9777 39.6816 42.9022 39.3028 42.7556 38.9496C42.6089 38.5963 42.3939 38.2755 42.1229 38.0055C41.5715 37.4699 40.8331 37.1703 40.0644 37.1703C39.2956 37.1703 38.5572 37.4699 38.0058 38.0055C35.4342 40.5742 32.1588 42.3228 28.5936 43.0304C25.0284 43.7379 21.3334 43.3727 17.9758 41.9808C14.6181 40.5889 11.7485 38.2328 9.72956 35.2103C7.71064 32.1879 6.63308 28.6347 6.63308 25C6.63308 21.3653 7.71064 17.8121 9.72956 14.7897C11.7485 11.7672 14.6181 9.41114 17.9758 8.01923C21.3334 6.62733 25.0284 6.26208 28.5936 6.96965C32.1588 7.67723 35.4342 9.42587 38.0058 11.9945L41.2753 15.2399H38.6112C37.8404 15.2399 37.1012 15.546 36.5562 16.0911C36.0112 16.6361 35.705 17.3753 35.705 18.1461C35.705 18.9169 36.0112 19.6561 36.5562 20.2011C37.1012 20.7462 37.8404 21.0524 38.6112 21.0524H48.8558V21.0039Z" fill="white"/>
</svg>
