<svg width="52" height="47" viewBox="0 0 52 47" fill="none" xmlns="http://www.w3.org/2000/svg">
<path d="M32.9745 27.6166C30.1329 22.4603 29.252 21.1583 25.9995 21.1583C22.7471 21.1583 21.5149 23.1087 18.6732 28.2547C16.2397 32.6541 11.321 33.021 10.094 36.7565C9.84338 37.441 9.71938 38.5054 9.72454 39.2416C9.72454 42.2796 11.7576 44.4083 14.3745 44.4083C17.627 44.4083 22.1349 41.825 25.9995 41.825C29.8642 41.825 34.3721 44.4083 37.6245 44.4083C40.2415 44.4083 42.2745 42.2822 42.2745 39.2416C42.2745 38.5054 42.148 37.441 41.8974 36.7565C40.6703 33.008 35.408 32.016 32.9745 27.6166ZM47.1519 13.6201C46.82 13.4798 46.4633 13.4078 46.103 13.4083H46.0643C44.1655 13.4393 42.0343 15.3458 40.9157 18.2288C39.575 21.6775 40.1924 25.2038 42.3055 26.1131C42.6388 26.2552 42.9953 26.325 43.3544 26.325C45.2635 26.325 47.4231 24.4081 48.5495 21.5045C49.8825 18.0557 49.2547 14.5295 47.1545 13.6201H47.1519ZM19.474 15.9916C19.6161 15.9916 19.7556 15.9813 19.8951 15.9632C22.3338 15.6325 23.8554 12.486 23.3051 8.93137C22.7807 5.58079 20.6004 3.07496 18.3141 3.07496C18.172 3.07496 18.0325 3.08529 17.893 3.10337C15.4544 3.43404 13.9328 6.58054 14.483 10.1352C15.01 13.4755 17.1904 15.9916 19.4766 15.9916H19.474ZM37.5109 10.1352C38.0637 6.58054 36.5421 3.43404 34.1009 3.10337C33.9622 3.08417 33.8224 3.07468 33.6824 3.07496C31.3961 3.07496 29.2184 5.58079 28.6965 8.93137C28.1437 12.486 29.6653 15.6325 32.1065 15.9632C32.246 15.9813 32.3855 15.9916 32.525 15.9916C34.8113 15.9916 36.9942 13.4755 37.5109 10.1352ZM9.69871 26.1131C11.8067 25.2038 12.4215 21.6724 11.0834 18.2288C9.95704 15.3251 7.79996 13.4083 5.89346 13.4083C5.53179 13.4083 5.17788 13.478 4.84204 13.6201C2.73404 14.5295 2.11921 18.0609 3.45738 21.5045C4.58371 24.4081 6.74079 26.325 8.64729 26.325C9.00896 26.325 9.36288 26.2552 9.69871 26.1131Z" stroke="#013A7B" stroke-width="5" stroke-linecap="round" stroke-linejoin="round"/>
</svg>
