<svg width="52" height="42" viewBox="0 0 52 42" fill="none" xmlns="http://www.w3.org/2000/svg">
<path d="M33.7503 0.333252C35.1206 0.333252 36.4348 0.877595 37.4037 1.84653C38.3726 2.81547 38.917 4.12963 38.917 5.49992V8.08325H42.8437C43.6181 8.08335 44.3825 8.25752 45.0805 8.59289C45.7785 8.92826 46.3922 9.41624 46.8762 10.0208L50.6996 14.8025C51.4335 15.7188 51.8335 16.8577 51.8337 18.0317V28.7499C51.8337 30.1202 51.2893 31.4344 50.3204 32.4033C49.3514 33.3722 48.0373 33.9166 46.667 33.9166C46.667 35.972 45.8505 37.9433 44.3971 39.3967C42.9437 40.8501 40.9724 41.6666 38.917 41.6666C36.8616 41.6666 34.8903 40.8501 33.4369 39.3967C31.9835 37.9433 31.167 35.972 31.167 33.9166H20.8337C20.8337 34.9343 20.6332 35.9421 20.2437 36.8824C19.8543 37.8227 19.2834 38.677 18.5637 39.3967C17.8441 40.1163 16.9897 40.6872 16.0495 41.0767C15.1092 41.4661 14.1014 41.6666 13.0837 41.6666C12.0659 41.6666 11.0581 41.4661 10.1179 41.0767C9.17759 40.6872 8.32324 40.1163 7.60358 39.3967C6.88393 38.677 6.31307 37.8227 5.92359 36.8824C5.53412 35.9421 5.33366 34.9343 5.33366 33.9166C3.96337 33.9166 2.64921 33.3722 1.68027 32.4033C0.711336 31.4344 0.166992 30.1202 0.166992 28.7499V5.49992C0.166992 4.12963 0.711336 2.81547 1.68027 1.84653C2.64921 0.877595 3.96337 0.333252 5.33366 0.333252H33.7503ZM13.0837 31.3333C12.3985 31.3333 11.7414 31.6054 11.257 32.0899C10.7725 32.5744 10.5003 33.2314 10.5003 33.9166C10.5003 34.6017 10.7725 35.2588 11.257 35.7433C11.7414 36.2277 12.3985 36.4999 13.0837 36.4999C13.7688 36.4999 14.4259 36.2277 14.9104 35.7433C15.3948 35.2588 15.667 34.6017 15.667 33.9166C15.667 33.2314 15.3948 32.5744 14.9104 32.0899C14.4259 31.6054 13.7688 31.3333 13.0837 31.3333ZM38.917 31.3333C38.2318 31.3333 37.5748 31.6054 37.0903 32.0899C36.6058 32.5744 36.3337 33.2314 36.3337 33.9166C36.3337 34.6017 36.6058 35.2588 37.0903 35.7433C37.5748 36.2277 38.2318 36.4999 38.917 36.4999C39.6021 36.4999 40.2592 36.2277 40.7437 35.7433C41.2282 35.2588 41.5003 34.6017 41.5003 33.9166C41.5003 33.2314 41.2282 32.5744 40.7437 32.0899C40.2592 31.6054 39.6021 31.3333 38.917 31.3333ZM33.7503 5.49992H5.33366V28.7499H7.30733C8.006 27.967 8.85655 27.3342 9.8073 26.8901C10.758 26.446 11.7892 26.1998 12.838 26.1664C13.8868 26.1331 14.9315 26.3133 15.9085 26.6961C16.8856 27.079 17.7746 27.6564 18.5216 28.3934L18.86 28.7499H33.1407L33.4377 28.4373L33.7503 28.1403V5.49992ZM42.8437 13.2499H38.917V26.1666C41.0353 26.1666 42.9547 27.0191 44.3549 28.3934L44.6933 28.7499H46.667V18.0291L42.8437 13.2499Z" fill="white"/>
</svg>
