<svg width="52" height="50" viewBox="0 0 52 50" fill="none" xmlns="http://www.w3.org/2000/svg">
<path d="M2.80033 22.324V22.3058L2.78862 22.2918C1.19931 20.3991 0.216992 17.9381 0.216992 15.2302V7.91675C0.216992 3.67153 3.67177 0.216748 7.91699 0.216748H44.0837C48.3289 0.216748 51.7837 3.67153 51.7837 7.91675V15.2276C51.7837 17.9381 50.8013 20.3991 49.2121 22.2892L49.2003 22.3032V22.3214V44.0834C49.2003 46.9052 46.9055 49.2001 44.0837 49.2001H7.91699C5.09519 49.2001 2.80033 46.9052 2.80033 44.0834V22.324ZM41.7828 20.8783L41.7845 20.8782C44.5066 20.7345 46.717 18.1979 46.717 15.2302V7.91675C46.717 6.46575 45.5373 5.28341 44.0837 5.28341H36.3337H36.2837V5.33341V15.6667C36.2837 18.5438 38.6233 20.8834 41.5003 20.8834L41.5012 20.8834L41.7828 20.8783ZM20.8337 5.28341H20.7837V5.33341V15.6667C20.7837 18.5438 23.1233 20.8834 26.0003 20.8834C28.8774 20.8834 31.217 18.5438 31.217 15.6667V5.33341V5.28341H31.167H20.8337ZM15.717 5.33341V5.28341H15.667H7.91699C6.46335 5.28341 5.28366 6.46575 5.28366 7.91675V15.2302C5.28366 18.1979 7.494 20.7345 10.2162 20.8756L10.2174 20.8756L10.4989 20.8834V20.8834H10.5003C13.3774 20.8834 15.717 18.5438 15.717 15.6667V5.33341ZM20.7837 44.0834V44.1334H20.8337H31.167H31.217V44.0834V36.3334V36.2834H31.167H20.8337H20.7837V36.3334V44.0834ZM36.2837 44.0834V44.1334H36.3337H44.0837H44.1337V44.0834V25.6617V25.5968L44.0709 25.6133C43.4177 25.7856 42.7443 25.8987 42.048 25.9346L42.0479 25.9347C40.498 26.0188 38.9492 25.7499 37.5184 25.1482C36.0875 24.5466 34.812 23.6279 33.7879 22.4615L33.7504 22.4188L33.7128 22.4614C31.8283 24.6005 29.0673 25.9501 26.0003 25.9501C22.9334 25.9501 20.1723 24.6005 18.2878 22.4614L18.2503 22.4188L18.2128 22.4615C17.1887 23.6279 15.9131 24.5466 14.4823 25.1482C13.0515 25.7499 11.5027 26.0188 9.95279 25.9347L9.95267 25.9346C9.25891 25.8987 8.5829 25.7856 7.92975 25.6133L7.86699 25.5968V25.6617V44.0834V44.1334H7.91699H15.667H15.717V44.0834V36.3334C15.717 33.5116 18.0119 31.2167 20.8337 31.2167H31.167C33.9888 31.2167 36.2837 33.5116 36.2837 36.3334V44.0834Z" fill="#013A7B" stroke="#013A7B" stroke-width="0.1"/>
</svg>
